<svg width="640" height="448" viewBox="0 -96 640 544" version="1.1" xmlns="http://www.w3.org/2000/svg" xmlns:xlink="http://www.w3.org/1999/xlink">
    <g stroke="none" stroke-width="1" fill="#006699" fill-rule="nonzero">
        <path d="M288,400 L288,384 L128,384 C110.3,384 96,398.3 96,416 C96,433.7 110.3,448 128,448 L304,448 C294,434.6 288,418 288,400 Z M477.166874,173.303544 C500.404385,170.111256 519.198637,192.650614 511.874798,214.927976 C509.278279,222.825683 503.909896,229.102378 496.076854,233.397991 L496.076854,233.397991 L495.496109,233.716029 L495.496109,360.107362 L519.995408,335.635958 L544.494005,311.164555 L544.203633,310.230757 C540.249237,297.502937 545.707397,282.672145 557.186227,274.954472 C574.226321,263.496703 597.774544,271.077072 604.967224,290.335877 C612.258799,309.86018 599.138734,331.003394 578.313979,333.288503 C573.976628,333.764158 567.829009,333.060132 564.585113,331.715126 L564.585113,331.715126 L564.003667,331.474146 L529.750239,365.685634 L495.496109,399.897822 L495.496109,448 L461.737155,448 L430.017121,416.319505 L398.297788,384.63971 L397.030389,385.030603 C376.410438,391.39136 355.287596,375.10628 356.018437,353.411754 C356.895867,327.350161 386.917152,313.222695 407.532894,329.170823 C417.833401,337.137882 422.301911,350.727346 418.702414,363.132925 L418.702414,363.132925 L418.231085,364.75814 L442.836293,389.333221 L467.440799,413.907601 L467.440799,233.716029 L466.860756,233.397991 C459.027713,229.102378 453.658629,222.825683 451.06211,214.927976 C444.856977,196.052358 457.422248,176.016673 477.166874,173.303544 Z M304,0 C294,13.4 288,30 288,48 L288,48 L288,64 L64,64 L64,288 L288,288 L288,352 L64,352 C28.7,352 0,323.3 0,288 L0,288 L0,64 C0,28.7 28.7,0 64,0 L64,0 Z M368,0 C341.5,0 320,21.5 320,48 L320,400 C320,426.5 341.5,448 368,448 L592,448 C618.5,448 640,426.5 640,400 L640,48 C640,21.5 618.5,0 592,0 L368,0 Z"></path>
    </g>
</svg>
